<svg width="81" height="25" viewBox="0 0 81 25" fill="none" xmlns="http://www.w3.org/2000/svg">
<path d="M15.5097 13.4609L19.5646 19.8257L15.9486 22.3863L11.4548 19.8257L15.5097 13.4609Z" fill="#FFD96B"/>
<path d="M22.0037 10.0893L29.507 9.28168L30.1961 13.6585L25.9066 16.5484L22.0037 10.0893Z" fill="#FF9D6F"/>
<path d="M15.7603 10.6807L11.7055 4.31587L15.3214 1.75531L19.8152 4.31587L15.7603 10.6807Z" fill="#93D6D3"/>
<path d="M9.74022 9.91542L6.36574 16.6656L2.31048 14.8807L2.19633 9.7098L9.74022 9.91542Z" fill="#0079FF"/>
<path d="M13.6413 10.2226C13.6684 10.2381 13.6954 10.2548 13.7219 10.2716C14.846 10.9861 14.9479 12.589 13.9649 13.4877C13.6497 13.7755 13.2919 14.1192 12.9323 14.499C11.3936 16.1232 10.6459 17.5169 10.6459 18.7587C10.6459 21.5982 12.9593 23.9086 15.8026 23.9086C18.6458 23.9086 20.9593 21.5982 20.9593 18.7587C20.9593 17.5169 20.2115 16.1232 18.6729 14.499C18.3139 14.1199 17.9555 13.7761 17.6409 13.4883C16.6579 12.5903 16.7598 10.9868 17.8839 10.2722C17.9104 10.2555 17.9368 10.2394 17.9645 10.2233M17.9632 10.2233C17.9903 10.2078 18.018 10.1924 18.0457 10.1782C19.2273 9.56344 20.6685 10.2767 20.956 11.5758C21.0482 11.9923 21.1675 12.4738 21.3164 12.974C21.9558 15.117 22.7899 16.4605 23.867 17.0811C24.6772 17.5484 25.5622 17.7699 26.4369 17.7699C28.2205 17.7699 29.9576 16.8461 30.9116 15.1962C31.6 14.0046 31.7831 12.6167 31.4266 11.288C31.0702 9.95935 30.2168 8.84889 29.0243 8.16073C27.9472 7.54016 26.3647 7.48995 24.1873 8.00816C23.5524 8.15944 22.9665 8.33647 22.505 8.48904C22.1562 8.60427 21.7753 8.60041 21.4369 8.45814C21.4285 8.45492 21.4208 8.45106 21.413 8.44784C20.6892 8.13176 20.3701 7.29039 20.664 6.55845C20.8613 6.06599 20.9593 5.59734 20.9593 5.14866C20.9593 2.31039 18.6458 0 15.8026 0C12.9593 0 10.6459 2.31039 10.6459 5.14994C10.6459 5.60056 10.7445 6.07114 10.9437 6.56553C11.228 7.27043 10.945 8.09056 10.2579 8.41823C10.2495 8.42209 10.2411 8.42595 10.2327 8.42981C9.87693 8.59397 9.4702 8.61135 9.09763 8.48839C8.6361 8.33583 8.05082 8.1588 7.4172 8.00816C5.23915 7.48931 3.65734 7.53952 2.58024 8.16073C1.38712 8.84825 0.534336 9.95935 0.177882 11.288C-0.178573 12.6167 0.00448864 14.0046 0.692904 15.1962C1.38132 16.3878 2.49387 17.2394 3.82429 17.5954C4.26841 17.7145 4.71962 17.7731 5.16696 17.7731C6.06035 17.7731 6.94214 17.5388 7.73691 17.0811C8.81401 16.4599 9.6481 15.1164 10.2875 12.974C10.4371 12.4738 10.5563 11.9923 10.6478 11.5758C10.9353 10.2767 12.3766 9.5628 13.5581 10.1782C13.5859 10.1924 13.6136 10.2078 13.6407 10.2233M15.8026 2.57497C17.2245 2.57497 18.3809 3.72985 18.3809 5.14994C18.3809 5.90055 17.1569 7.4024 15.8026 8.61843C14.4477 7.40176 13.2242 5.90055 13.2242 5.14994C13.2242 3.72985 14.3806 2.57497 15.8026 2.57497ZM6.44839 14.8511C5.21723 15.5612 3.63736 15.1383 2.92639 13.9087C2.58218 13.3132 2.49065 12.6193 2.66855 11.9549C2.84646 11.2906 3.27317 10.7351 3.87006 10.3913C4.06794 10.2774 4.38185 10.2265 4.77183 10.2265C5.66651 10.2265 6.96083 10.4949 8.16685 10.887C7.78912 12.6669 7.09942 14.4758 6.44839 14.8511ZM18.3809 18.758C18.3809 20.1781 17.2245 21.333 15.8026 21.333C14.3806 21.333 13.2242 20.1781 13.2242 18.758C13.2242 18.0074 14.4483 16.5056 15.8026 15.2895C17.1575 16.5062 18.3809 18.0074 18.3809 18.758ZM28.6788 13.9094C27.9678 15.1389 26.3879 15.5618 25.1568 14.8518C24.5057 14.4765 23.816 12.6669 23.4383 10.8876C25.1703 10.3243 27.0841 10.0166 27.7351 10.3919C28.3314 10.7357 28.7581 11.2913 28.9366 11.9556C29.1152 12.6199 29.0236 13.3139 28.6788 13.9094Z" fill="#2D2D2A"/>
<path d="M52.1413 14.2647L47.8846 24.4657H46.3985L47.809 21.0906L45.0762 14.2647H46.6756L48.6276 19.5541L50.6553 14.2647H52.1413Z" fill="#2D2D2A"/>
<path d="M59.5847 17.5643C59.5847 17.8246 59.5679 18.0597 59.5343 18.2696H54.2323C54.2743 18.8237 54.48 19.2687 54.8494 19.6045C55.2188 19.9403 55.6722 20.1083 56.2095 20.1083C56.982 20.1083 57.5277 19.785 57.8467 19.1385H59.3958C59.1859 19.7766 58.8039 20.3014 58.2497 20.7128C57.704 21.1158 57.0239 21.3173 56.2095 21.3173C55.5463 21.3173 54.9502 21.1703 54.4212 20.8765C53.9007 20.5742 53.4893 20.1544 53.187 19.6171C52.8932 19.0714 52.7462 18.4417 52.7462 17.728C52.7462 17.0144 52.889 16.3889 53.1744 15.8515C53.4683 15.3058 53.8755 14.886 54.396 14.5922C54.925 14.2983 55.5295 14.1514 56.2095 14.1514C56.8644 14.1514 57.4479 14.2941 57.9601 14.5796C58.4722 14.865 58.871 15.268 59.1565 15.7886C59.442 16.3007 59.5847 16.8926 59.5847 17.5643ZM58.086 17.1109C58.0776 16.582 57.8887 16.158 57.5193 15.8389C57.1499 15.5199 56.6923 15.3604 56.1466 15.3604C55.6512 15.3604 55.2272 15.5199 54.8746 15.8389C54.522 16.1496 54.3121 16.5736 54.2449 17.1109H58.086Z" fill="#2D2D2A"/>
<path d="M63.5163 21.3173C62.9706 21.3173 62.4794 21.2207 62.0429 21.0276C61.6147 20.8261 61.2746 20.5574 61.0228 20.2216C60.7709 19.8774 60.6365 19.4954 60.6198 19.0756H62.1058C62.131 19.3694 62.2695 19.6171 62.5214 19.8186C62.7817 20.0117 63.1049 20.1083 63.4912 20.1083C63.8942 20.1083 64.2048 20.0327 64.4231 19.8816C64.6498 19.7221 64.7631 19.5205 64.7631 19.2771C64.7631 19.0168 64.6372 18.8237 64.3853 18.6978C64.1418 18.5718 63.7514 18.4333 63.2141 18.2822C62.6935 18.1394 62.2695 18.0009 61.9421 17.8666C61.6147 17.7322 61.3292 17.5265 61.0857 17.2495C60.8506 16.9724 60.7331 16.6072 60.7331 16.1538C60.7331 15.7844 60.8422 15.4485 61.0605 15.1463C61.2788 14.8356 61.5895 14.5922 61.9925 14.4158C62.4039 14.2395 62.8741 14.1514 63.403 14.1514C64.1922 14.1514 64.8261 14.3529 65.3047 14.7559C65.7916 15.1505 66.0519 15.692 66.0855 16.3805H64.6498C64.6246 16.0698 64.4987 15.8222 64.272 15.6374C64.0453 15.4527 63.7388 15.3604 63.3526 15.3604C62.9748 15.3604 62.6851 15.4317 62.4836 15.5745C62.2821 15.7172 62.1814 15.9061 62.1814 16.1412C62.1814 16.3259 62.2486 16.4812 62.3829 16.6072C62.5172 16.7331 62.6809 16.8339 62.8741 16.9094C63.0672 16.9766 63.3526 17.0647 63.7304 17.1739C64.2342 17.3082 64.6456 17.4468 64.9646 17.5895C65.2921 17.7238 65.5733 17.9253 65.8084 18.194C66.0435 18.4627 66.1652 18.8195 66.1736 19.2645C66.1736 19.6591 66.0645 20.0117 65.8462 20.3224C65.6279 20.633 65.3173 20.8765 64.9143 21.0528C64.5196 21.2291 64.0537 21.3173 63.5163 21.3173Z" fill="#2D2D2A"/>
<path d="M46.3042 4.81887C46.4973 4.39068 46.7911 4.05904 47.1857 3.82395C47.5888 3.58887 48.0799 3.47133 48.6592 3.47133V4.39068H48.4199C47.7819 4.39068 47.2697 4.56279 46.8835 4.90703C46.4973 5.25126 46.3042 5.82638 46.3042 6.63239V10.4735H45.4226V3.59727H46.3042V4.81887Z" fill="#2D2D2A"/>
<path d="M50.4262 2.3001C50.2499 2.3001 50.0988 2.23713 49.9728 2.11119C49.8469 1.98525 49.7839 1.82993 49.7839 1.64522C49.7839 1.46051 49.8469 1.30938 49.9728 1.19184C50.0988 1.0659 50.2499 1.00293 50.4262 1.00293C50.6025 1.00293 50.7536 1.0659 50.8796 1.19184C51.0055 1.30938 51.0685 1.46051 51.0685 1.64522C51.0685 1.82993 51.0055 1.98525 50.8796 2.11119C50.7536 2.23713 50.6025 2.3001 50.4262 2.3001ZM50.867 3.59727V10.4735H49.9854V3.59727H50.867Z" fill="#2D2D2A"/>
<path d="M53.7449 1.15406V10.4735H52.8633V1.15406H53.7449Z" fill="#2D2D2A"/>
<path d="M56.6228 1.15406V10.4735H55.7412V1.15406H56.6228Z" fill="#2D2D2A"/>
<path d="M59.0599 2.3001C58.8836 2.3001 58.7324 2.23713 58.6065 2.11119C58.4806 1.98525 58.4176 1.82993 58.4176 1.64522C58.4176 1.46051 58.4806 1.30938 58.6065 1.19184C58.7324 1.0659 58.8836 1.00293 59.0599 1.00293C59.2362 1.00293 59.3873 1.0659 59.5133 1.19184C59.6392 1.30938 59.7022 1.46051 59.7022 1.64522C59.7022 1.82993 59.6392 1.98525 59.5133 2.11119C59.3873 2.23713 59.2362 2.3001 59.0599 2.3001ZM59.5007 3.59727V10.4735H58.6191V3.59727H59.5007Z" fill="#2D2D2A"/>
<path d="M61.094 7.02279C61.094 6.31754 61.2325 5.70044 61.5096 5.1715C61.795 4.63416 62.1855 4.22276 62.6808 3.9373C63.1846 3.64344 63.7513 3.49651 64.381 3.49651C65.0359 3.49651 65.5984 3.64764 66.0686 3.94989C66.5471 4.25215 66.8914 4.63836 67.1013 5.10853V3.59727H67.9828V10.4735H67.1013V8.94966C66.883 9.41983 66.5345 9.81024 66.056 10.1209C65.5858 10.4231 65.0233 10.5743 64.3684 10.5743C63.7471 10.5743 63.1846 10.4273 62.6808 10.1335C62.1855 9.83962 61.795 9.42402 61.5096 8.88669C61.2325 8.34935 61.094 7.72805 61.094 7.02279ZM67.1013 7.03539C67.1013 6.48126 66.9879 5.9943 66.7612 5.5745C66.5345 5.15471 66.2239 4.83146 65.8293 4.60477C65.4431 4.37808 65.0149 4.26474 64.5447 4.26474C64.0577 4.26474 63.6212 4.37389 63.2349 4.59218C62.8487 4.81047 62.5423 5.12952 62.3156 5.54931C62.0973 5.96071 61.9882 6.45187 61.9882 7.02279C61.9882 7.58532 62.0973 8.08068 62.3156 8.50887C62.5423 8.92867 62.8487 9.25191 63.2349 9.4786C63.6212 9.69689 64.0577 9.80604 64.5447 9.80604C65.0149 9.80604 65.4431 9.69269 65.8293 9.466C66.2239 9.23931 66.5345 8.91607 66.7612 8.49628C66.9879 8.07648 67.1013 7.58952 67.1013 7.03539Z" fill="#2D2D2A"/>
<path d="M79.111 4.3403V8.60962C79.111 9.02942 79.1907 9.31908 79.3503 9.4786C79.5098 9.63812 79.7911 9.71788 80.1941 9.71788H81.0001V10.4735H80.0555C79.4342 10.4735 78.9724 10.3308 78.6702 10.0453C78.3679 9.75146 78.2168 9.2729 78.2168 8.60962V4.3403H77.2597V3.59727H78.2168V1.87191H79.111V3.59727H81.0001V4.3403H79.111Z" fill="#2D2D2A"/>
<path d="M75.1546 6.17621C75.1546 5.32557 74.6812 4.58919 73.9507 4.37358C73.5865 4.26608 73.2412 4.19702 72.9716 4.19702C72.7019 4.19703 72.3567 4.26609 71.9925 4.37358C71.2621 4.58919 70.7887 5.32556 70.7887 6.17621V10.4467H69.9071V6.17621C69.9071 5.0275 70.5558 3.87847 71.7429 3.52805C72.1366 3.41184 72.5767 3.31544 72.9716 3.31543C73.3664 3.31543 73.8066 3.41184 74.2003 3.52805C75.3874 3.87846 76.0362 5.02749 76.0362 6.17621V10.4467H75.1546V6.17621Z" fill="#2D2D2A"/>
<path d="M37.8818 4.67285C38.531 3.93476 39.4818 3.46876 40.542 3.46875C42.4982 3.46875 44.084 5.05455 44.084 7.01074C44.0839 8.96684 42.4981 10.5527 40.542 10.5527C38.63 10.5527 37.0734 9.03756 37.0039 7.14258H37V1.13379H37.8818V4.67285ZM40.542 4.35059C39.0727 4.3506 37.8819 5.54144 37.8818 7.01074C37.882 8.47995 39.0728 9.67088 40.542 9.6709C42.0112 9.6709 43.202 8.47996 43.2021 7.01074C43.2021 5.54143 42.0113 4.35059 40.542 4.35059Z" fill="#2D2D2A"/>
<path d="M44.1107 12.0244V18.0068H44.1088C44.0667 19.9265 42.4985 21.4697 40.5687 21.4697C38.6126 21.4697 37.0268 19.8839 37.0267 17.9277C37.0267 15.9716 38.6125 14.3858 40.5687 14.3857C41.3542 14.3857 42.08 14.6415 42.6674 15.0742V12.0244H44.1107ZM40.5687 15.8291C39.4095 15.8291 38.4701 16.7685 38.4701 17.9277C38.4701 19.0869 39.4095 20.0263 40.5687 20.0264C41.7279 20.0264 42.6673 19.0869 42.6674 17.9277C42.6673 16.7685 41.7279 15.8291 40.5687 15.8291Z" fill="#2D2D2A"/>
</svg>
