<svg width="81" height="25" viewBox="0 0 81 25" fill="none" xmlns="http://www.w3.org/2000/svg">
<path d="M13.6413 10.2226C13.6684 10.2381 13.6954 10.2548 13.7219 10.2716C14.846 10.9861 14.9479 12.589 13.9649 13.4877C13.6497 13.7755 13.2919 14.1192 12.9323 14.499C11.3936 16.1232 10.6459 17.5169 10.6459 18.7587C10.6459 21.5982 12.9593 23.9086 15.8026 23.9086C18.6458 23.9086 20.9593 21.5982 20.9593 18.7587C20.9593 17.5169 20.2115 16.1232 18.6729 14.499C18.3139 14.1199 17.9555 13.7761 17.6409 13.4883C16.6579 12.5903 16.7598 10.9868 17.8839 10.2722C17.9104 10.2555 17.9368 10.2394 17.9645 10.2233M17.9632 10.2233C17.9903 10.2078 18.018 10.1924 18.0457 10.1782C19.2273 9.56344 20.6685 10.2767 20.956 11.5758C21.0482 11.9923 21.1675 12.4738 21.3164 12.974C21.9558 15.117 22.7899 16.4605 23.867 17.0811C24.6772 17.5484 25.5622 17.7699 26.4369 17.7699C28.2205 17.7699 29.9576 16.8461 30.9116 15.1962C31.6 14.0046 31.7831 12.6167 31.4266 11.288C31.0702 9.95935 30.2168 8.84889 29.0243 8.16073C27.9472 7.54016 26.3647 7.48995 24.1873 8.00816C23.5524 8.15944 22.9665 8.33647 22.505 8.48904C22.1562 8.60427 21.7753 8.6004 21.4369 8.45814C21.4285 8.45492 21.4208 8.45106 21.413 8.44784C20.6892 8.13176 20.3701 7.29039 20.664 6.55845C20.8613 6.06599 20.9593 5.59734 20.9593 5.14866C20.9593 2.31039 18.6458 0 15.8026 0C12.9593 0 10.6459 2.31039 10.6459 5.14994C10.6459 5.60056 10.7445 6.07114 10.9437 6.56553C11.228 7.27043 10.945 8.09056 10.2579 8.41823C10.2495 8.42209 10.2411 8.42595 10.2327 8.42981C9.87693 8.59397 9.4702 8.61135 9.09763 8.48839C8.6361 8.33583 8.05082 8.1588 7.4172 8.00816C5.23915 7.4893 3.65734 7.53952 2.58024 8.16073C1.38712 8.84825 0.534336 9.95935 0.177882 11.288C-0.178573 12.6167 0.00448865 14.0046 0.692904 15.1962C1.38132 16.3878 2.49387 17.2394 3.82429 17.5954C4.26841 17.7145 4.71962 17.7731 5.16696 17.7731C6.06035 17.7731 6.94214 17.5388 7.73691 17.0811C8.81401 16.4599 9.6481 15.1164 10.2875 12.974C10.4371 12.4738 10.5563 11.9923 10.6479 11.5758C10.9353 10.2767 12.3766 9.5628 13.5581 10.1782C13.5859 10.1924 13.6142 10.2072 13.6413 10.2226M15.8026 2.57497C17.2245 2.57497 18.3809 3.72985 18.3809 5.14994C18.3809 5.90055 17.1569 7.4024 15.8026 8.61843C14.4477 7.40176 13.2242 5.90055 13.2242 5.14994C13.2242 3.72985 14.3806 2.57497 15.8026 2.57497ZM6.44839 14.8511C5.21723 15.5612 3.63736 15.1383 2.92639 13.9087C2.58218 13.3132 2.49065 12.6193 2.66855 11.955C2.84646 11.2906 3.27317 10.7351 3.87006 10.3913C4.06794 10.2774 4.38185 10.2265 4.77183 10.2265C5.66651 10.2265 6.96083 10.4949 8.16685 10.887C7.78912 12.6669 7.09942 14.4758 6.44839 14.8511ZM18.3809 18.758C18.3809 20.1781 17.2245 21.333 15.8026 21.333C14.3806 21.333 13.2242 20.1781 13.2242 18.758C13.2242 18.0074 14.4483 16.5056 15.8026 15.2895C17.1575 16.5062 18.3809 18.0074 18.3809 18.758ZM28.6788 13.9094C27.9678 15.1389 26.3879 15.5618 25.1568 14.8518C24.5057 14.4765 23.816 12.6669 23.4383 10.8876C25.1703 10.3243 27.0841 10.0166 27.7351 10.3919C28.3314 10.7357 28.7581 11.2913 28.9366 11.9556C29.1152 12.6199 29.0236 13.3139 28.6788 13.9094Z" fill="#2D2D2A"/>
<path d="M52.1413 14.2648L47.8846 24.4659H46.3985L47.809 21.0907L45.0761 14.2648H46.6756L48.6276 19.5543L50.6552 14.2648H52.1413Z" fill="#2D2D2A"/>
<path d="M59.5847 17.5644C59.5847 17.8247 59.5679 18.0598 59.5343 18.2697H54.2323C54.2742 18.8238 54.4799 19.2688 54.8494 19.6046C55.2188 19.9405 55.6722 20.1084 56.2095 20.1084C56.9819 20.1084 57.5277 19.7851 57.8467 19.1387H59.3958C59.1859 19.7767 58.8038 20.3015 58.2497 20.7129C57.704 21.1159 57.0239 21.3174 56.2095 21.3174C55.5462 21.3174 54.9501 21.1705 54.4212 20.8766C53.9006 20.5744 53.4892 20.1546 53.187 19.6172C52.8931 19.0715 52.7462 18.4418 52.7462 17.7281C52.7462 17.0145 52.8889 16.389 53.1744 15.8517C53.4682 15.3059 53.8754 14.8861 54.396 14.5923C54.9249 14.2984 55.5294 14.1515 56.2095 14.1515C56.8644 14.1515 57.4479 14.2942 57.9601 14.5797C58.4722 14.8651 58.871 15.2681 59.1565 15.7887C59.4419 16.3008 59.5847 16.8928 59.5847 17.5644ZM58.086 17.111C58.0776 16.5821 57.8887 16.1581 57.5193 15.8391C57.1498 15.52 56.6923 15.3605 56.1465 15.3605C55.6512 15.3605 55.2272 15.52 54.8746 15.8391C54.5219 16.1497 54.312 16.5737 54.2449 17.111H58.086Z" fill="#2D2D2A"/>
<path d="M63.5163 21.3174C62.9706 21.3174 62.4794 21.2208 62.0428 21.0277C61.6146 20.8262 61.2746 20.5576 61.0227 20.2217C60.7708 19.8775 60.6365 19.4955 60.6197 19.0757H62.1058C62.131 19.3695 62.2695 19.6172 62.5214 19.8187C62.7817 20.0118 63.1049 20.1084 63.4911 20.1084C63.8941 20.1084 64.2048 20.0328 64.4231 19.8817C64.6498 19.7222 64.7631 19.5207 64.7631 19.2772C64.7631 19.0169 64.6372 18.8238 64.3853 18.6979C64.1418 18.5719 63.7514 18.4334 63.2141 18.2823C62.6935 18.1395 62.2695 18.001 61.9421 17.8667C61.6146 17.7323 61.3292 17.5266 61.0857 17.2496C60.8506 16.9725 60.7331 16.6073 60.7331 16.1539C60.7331 15.7845 60.8422 15.4487 61.0605 15.1464C61.2788 14.8358 61.5894 14.5923 61.9925 14.416C62.4039 14.2396 62.874 14.1515 63.403 14.1515C64.1922 14.1515 64.8261 14.353 65.3046 14.756C65.7916 15.1506 66.0519 15.6921 66.0855 16.3806H64.6498C64.6246 16.07 64.4986 15.8223 64.2719 15.6376C64.0453 15.4529 63.7388 15.3605 63.3526 15.3605C62.9748 15.3605 62.6851 15.4319 62.4836 15.5746C62.2821 15.7173 62.1814 15.9062 62.1814 16.1413C62.1814 16.326 62.2485 16.4814 62.3829 16.6073C62.5172 16.7332 62.6809 16.834 62.874 16.9095C63.0671 16.9767 63.3526 17.0649 63.7304 17.174C64.2342 17.3083 64.6456 17.4469 64.9646 17.5896C65.292 17.7239 65.5733 17.9254 65.8084 18.1941C66.0435 18.4628 66.1652 18.8196 66.1736 19.2646C66.1736 19.6592 66.0645 20.0118 65.8462 20.3225C65.6279 20.6331 65.3172 20.8766 64.9142 21.0529C64.5196 21.2292 64.0536 21.3174 63.5163 21.3174Z" fill="#2D2D2A"/>
<path d="M46.3041 4.81899C46.4972 4.3908 46.7911 4.05916 47.1857 3.82408C47.5887 3.58899 48.0798 3.47145 48.6592 3.47145V4.3908H48.4199C47.7818 4.3908 47.2696 4.56292 46.8834 4.90715C46.4972 5.25138 46.3041 5.8265 46.3041 6.63251V10.4736H45.4225V3.59739H46.3041V4.81899Z" fill="#2D2D2A"/>
<path d="M50.4261 2.30022C50.2498 2.30022 50.0987 2.23725 49.9728 2.11131C49.8468 1.98537 49.7839 1.83005 49.7839 1.64534C49.7839 1.46063 49.8468 1.3095 49.9728 1.19196C50.0987 1.06602 50.2498 1.00305 50.4261 1.00305C50.6025 1.00305 50.7536 1.06602 50.8795 1.19196C51.0055 1.3095 51.0684 1.46063 51.0684 1.64534C51.0684 1.83005 51.0055 1.98537 50.8795 2.11131C50.7536 2.23725 50.6025 2.30022 50.4261 2.30022ZM50.8669 3.59739V10.4736H49.9854V3.59739H50.8669Z" fill="#2D2D2A"/>
<path d="M53.7448 1.15418V10.4736H52.8633V1.15418H53.7448Z" fill="#2D2D2A"/>
<path d="M56.6227 1.15418V10.4736H55.7411V1.15418H56.6227Z" fill="#2D2D2A"/>
<path d="M59.0598 2.30022C58.8835 2.30022 58.7324 2.23725 58.6064 2.11131C58.4805 1.98537 58.4175 1.83005 58.4175 1.64534C58.4175 1.46063 58.4805 1.3095 58.6064 1.19196C58.7324 1.06602 58.8835 1.00305 59.0598 1.00305C59.2361 1.00305 59.3873 1.06602 59.5132 1.19196C59.6391 1.3095 59.7021 1.46063 59.7021 1.64534C59.7021 1.83005 59.6391 1.98537 59.5132 2.11131C59.3873 2.23725 59.2361 2.30022 59.0598 2.30022ZM59.5006 3.59739V10.4736H58.619V3.59739H59.5006Z" fill="#2D2D2A"/>
<path d="M61.0939 7.02292C61.0939 6.31766 61.2325 5.70056 61.5095 5.17162C61.795 4.63428 62.1854 4.22288 62.6808 3.93742C63.1845 3.64356 63.7512 3.49664 64.3809 3.49664C65.0358 3.49664 65.5983 3.64776 66.0685 3.95002C66.5471 4.25227 66.8913 4.63848 67.1012 5.10865V3.59739H67.9828V10.4736H67.1012V8.94978C66.8829 9.41995 66.5345 9.81036 66.0559 10.121C65.5857 10.4233 65.0232 10.5744 64.3683 10.5744C63.747 10.5744 63.1845 10.4275 62.6808 10.1336C62.1854 9.83974 61.795 9.42415 61.5095 8.88681C61.2325 8.34947 61.0939 7.72817 61.0939 7.02292ZM67.1012 7.03551C67.1012 6.48138 66.9879 5.99442 66.7612 5.57462C66.5345 5.15483 66.2238 4.83159 65.8292 4.6049C65.443 4.37821 65.0148 4.26486 64.5446 4.26486C64.0577 4.26486 63.6211 4.37401 63.2349 4.5923C62.8487 4.8106 62.5422 5.12964 62.3155 5.54943C62.0972 5.96083 61.9881 6.452 61.9881 7.02292C61.9881 7.58544 62.0972 8.0808 62.3155 8.50899C62.5422 8.92879 62.8487 9.25203 63.2349 9.47872C63.6211 9.69701 64.0577 9.80616 64.5446 9.80616C65.0148 9.80616 65.443 9.69281 65.8292 9.46613C66.2238 9.23944 66.5345 8.91619 66.7612 8.4964C66.9879 8.0766 67.1012 7.58964 67.1012 7.03551Z" fill="#2D2D2A"/>
<path d="M79.1109 4.34043V8.60974C79.1109 9.02954 79.1907 9.3192 79.3502 9.47872C79.5097 9.63824 79.791 9.718 80.194 9.718H81V10.4736H80.0555C79.4342 10.4736 78.9724 10.3309 78.6701 10.0454C78.3679 9.75159 78.2168 9.27302 78.2168 8.60974V4.34043H77.2596V3.59739H78.2168V1.87203H79.1109V3.59739H81V4.34043H79.1109Z" fill="#2D2D2A"/>
<path d="M75.1546 6.17596C75.1546 5.32532 74.6812 4.58894 73.9508 4.37333C73.5866 4.26583 73.2413 4.19677 72.9716 4.19677C72.702 4.19678 72.3567 4.26584 71.9926 4.37333C71.2621 4.58894 70.7887 5.32531 70.7887 6.17596V10.4464H69.9071V6.17596C69.9071 5.02725 70.5558 3.87822 71.7429 3.5278C72.1366 3.41159 72.5767 3.31519 72.9716 3.31518C73.3664 3.31518 73.8066 3.41159 74.2003 3.5278C75.3874 3.87821 76.0362 5.02724 76.0362 6.17596V10.4464H75.1546V6.17596Z" fill="#2D2D2A"/>
<path fill-rule="evenodd" clip-rule="evenodd" d="M37.8818 4.67307C38.531 3.93498 39.4818 3.46897 40.542 3.46897C42.4982 3.46897 44.084 5.05477 44.084 7.01096C44.0839 8.96706 42.4981 10.5529 40.542 10.5529C38.63 10.5529 37.0734 9.03777 37.0039 7.14279H37V1.134H37.8818V4.67307ZM40.542 4.3508C39.0727 4.35082 37.8818 5.54165 37.8818 7.01096C37.882 8.48017 39.0728 9.6711 40.542 9.67111C42.0112 9.67111 43.202 8.48018 43.2021 7.01096C43.2021 5.54164 42.0113 4.3508 40.542 4.3508Z" fill="#2D2D2A"/>
<path fill-rule="evenodd" clip-rule="evenodd" d="M44.1108 12.0246V18.007H44.1088C44.0667 19.9266 42.4985 21.4699 40.5688 21.4699C38.6126 21.4699 37.0268 19.8841 37.0268 17.9279C37.0268 15.9717 38.6126 14.3859 40.5688 14.3859C41.3543 14.3859 42.08 14.6417 42.6674 15.0744V12.0246H44.1108ZM40.5688 15.8293C39.4096 15.8293 38.4702 16.7687 38.4701 17.9279C38.4702 19.0871 39.4096 20.0265 40.5688 20.0265C41.728 20.0265 42.6674 19.0871 42.6674 17.9279C42.6674 16.7687 41.728 15.8293 40.5688 15.8293Z" fill="#2D2D2A"/>
</svg>
